<?xml version="1.0" standalone="no"?>
<!DOCTYPE svg PUBLIC "-//W3C//DTD SVG 20010904//EN"
 "http://www.w3.org/TR/2001/REC-SVG-20010904/DTD/svg10.dtd">
<svg version="1.0" xmlns="http://www.w3.org/2000/svg"
 width="1848.000000pt" height="1742.000000pt" viewBox="0 0 1848.000000 1742.000000"
 preserveAspectRatio="xMidYMid meet">

<g transform="translate(0.000000,1742.000000) scale(0.100000,-0.100000)"
fill="#fff" stroke="none">
<path d="M9824 16748 c-27 -29 -92 -100 -144 -158 -52 -58 -97 -107 -100 -110
-3 -3 -39 -43 -80 -90 -41 -47 -98 -110 -126 -140 -28 -30 -63 -68 -78 -85
l-26 -30 -31 35 c-95 106 -117 130 -163 180 -79 86 -134 147 -226 250 -139
155 -173 190 -184 190 -6 0 -119 -163 -251 -361 -131 -198 -243 -363 -247
-365 -7 -5 -112 79 -428 339 -103 86 -109 91 -190 157 -30 25 -58 49 -62 54
-7 10 -38 -10 -38 -25 0 -4 -20 -50 -44 -101 -24 -51 -58 -124 -76 -163 -18
-38 -48 -104 -67 -145 -50 -107 -105 -225 -138 -297 -16 -35 -34 -63 -42 -63
-7 0 -59 28 -115 61 -57 34 -116 69 -133 79 -16 9 -122 72 -235 140 -241 145
-268 160 -279 160 -8 0 -12 -10 -31 -75 -5 -16 -27 -93 -50 -170 -23 -77 -46
-155 -51 -172 -5 -18 -14 -50 -20 -70 -20 -72 -27 -98 -59 -203 -18 -58 -34
-115 -37 -128 -8 -33 -25 -36 -75 -14 -23 11 -113 48 -198 82 -85 34 -171 69
-190 77 -19 8 -44 19 -55 23 -11 4 -36 15 -55 23 -115 50 -264 106 -270 102
-5 -3 -11 -33 -15 -67 -3 -35 -10 -88 -15 -118 -5 -30 -13 -91 -19 -135 -23
-181 -33 -253 -41 -305 -5 -30 -14 -99 -21 -152 -14 -109 -16 -111 -98 -88
-20 6 -112 28 -206 51 -93 22 -260 62 -370 89 -110 28 -204 50 -209 50 -5 0
-7 -186 -5 -447 l4 -448 -35 1 c-19 0 -93 6 -165 12 -122 11 -192 18 -455 42
-58 5 -133 12 -167 16 l-63 7 0 -31 c0 -17 12 -97 26 -179 14 -81 29 -175 34
-208 5 -33 25 -150 44 -260 19 -112 30 -204 25 -209 -5 -5 -75 -13 -156 -17
-82 -4 -227 -13 -323 -18 -96 -6 -226 -14 -288 -17 -62 -4 -115 -10 -117 -14
-2 -4 0 -20 6 -36 11 -33 93 -286 194 -598 37 -114 63 -212 58 -216 -7 -7
-134 -37 -258 -60 -38 -7 -101 -21 -190 -41 -22 -5 -62 -13 -90 -19 -27 -5
-93 -19 -145 -30 -52 -12 -112 -24 -133 -27 -21 -3 -40 -10 -43 -15 -3 -5 82
-186 190 -403 108 -217 196 -396 196 -398 0 -5 -83 -38 -242 -98 -46 -17 -92
-35 -103 -39 -11 -4 -45 -17 -75 -28 -263 -96 -410 -155 -410 -166 0 -6 17
-33 38 -61 31 -42 163 -227 296 -418 16 -23 60 -85 98 -138 37 -53 68 -101 68
-107 0 -10 -75 -55 -215 -132 -33 -18 -73 -40 -90 -50 -16 -10 -51 -29 -77
-44 -27 -14 -69 -38 -95 -52 -27 -15 -61 -34 -78 -44 -16 -10 -50 -29 -75 -42
-101 -56 -125 -70 -134 -78 -9 -9 27 -48 374 -409 118 -122 219 -230 224 -238
5 -9 4 -18 -1 -22 -14 -10 -70 -52 -323 -249 -129 -100 -265 -206 -303 -234
-37 -29 -66 -56 -65 -60 3 -6 108 -89 318 -252 36 -27 115 -88 175 -135 61
-47 131 -102 157 -121 26 -19 48 -38 48 -42 0 -9 -6 -16 -244 -263 -347 -363
-369 -386 -360 -395 9 -8 33 -22 134 -78 25 -13 59 -32 75 -42 17 -10 57 -32
90 -50 33 -18 132 -74 220 -123 88 -49 177 -99 198 -110 21 -11 41 -26 44 -33
3 -7 -22 -50 -54 -96 -33 -46 -94 -132 -137 -193 -42 -60 -96 -137 -119 -170
-168 -235 -189 -266 -183 -280 3 -8 11 -15 17 -15 11 0 120 -39 362 -131 42
-16 114 -43 160 -60 45 -17 91 -34 102 -39 90 -36 129 -50 139 -50 6 0 19 -7
29 -14 17 -13 6 -39 -178 -407 -107 -217 -193 -399 -191 -405 2 -6 22 -14 43
-17 21 -3 81 -15 133 -26 52 -12 140 -31 195 -42 55 -12 138 -29 185 -39 47
-10 121 -25 165 -34 99 -21 145 -35 145 -45 0 -5 -29 -96 -64 -202 -35 -107
-87 -268 -116 -359 -28 -91 -61 -189 -71 -218 -11 -30 -17 -57 -15 -61 3 -4
58 -11 123 -15 310 -18 451 -26 597 -35 96 -5 161 -13 165 -20 4 -6 -3 -73
-16 -148 -13 -76 -28 -165 -33 -198 -5 -33 -16 -100 -24 -150 -8 -49 -20 -121
-26 -160 -7 -38 -16 -89 -21 -112 -5 -23 -9 -58 -9 -79 l0 -37 58 7 c55 7 161
17 382 36 58 4 164 14 235 21 72 6 148 12 170 13 l40 1 -4 -447 c-2 -247 -1
-448 3 -448 8 0 150 34 602 146 122 30 233 54 246 54 23 0 25 -4 37 -97 6 -54
16 -125 21 -158 5 -33 14 -98 20 -145 6 -47 16 -119 21 -160 6 -41 14 -100 19
-130 5 -30 12 -83 15 -118 4 -34 10 -64 15 -67 4 -2 74 23 156 56 82 34 167
68 188 76 22 8 58 22 80 33 23 10 100 41 171 70 72 29 150 61 173 72 50 22 67
19 75 -14 3 -13 19 -70 37 -128 30 -99 36 -120 59 -202 19 -69 62 -216 81
-278 11 -36 29 -98 41 -138 12 -39 26 -72 31 -72 4 0 38 18 74 40 36 22 68 40
69 40 2 0 41 23 87 51 46 29 97 60 114 69 17 10 62 37 99 59 37 23 69 41 72
41 3 0 17 9 32 19 48 35 202 121 215 121 7 0 25 -28 41 -62 27 -59 60 -131
142 -308 20 -41 48 -102 63 -135 135 -289 149 -315 162 -287 3 7 202 173 423
352 51 41 127 103 169 138 42 35 80 61 84 58 4 -2 118 -170 252 -371 l244
-366 51 53 c28 29 89 96 135 148 47 52 87 97 90 100 3 3 43 48 90 100 85 95
136 151 203 225 l37 40 26 -30 c15 -16 47 -52 72 -80 173 -189 224 -245 312
-345 41 -46 102 -113 135 -148 l61 -64 243 366 c134 202 248 369 252 372 8 5
180 -131 424 -336 50 -42 126 -105 170 -140 44 -36 81 -68 83 -72 13 -29 27
-3 163 290 16 34 42 90 58 125 43 90 113 243 146 315 16 34 35 62 42 62 7 0
43 -18 79 -40 36 -22 67 -40 69 -40 1 0 107 -63 235 -140 128 -77 234 -140
236 -140 2 0 31 -18 65 -40 34 -22 67 -40 74 -40 6 0 18 19 25 43 7 23 16 53
21 67 5 14 15 50 23 80 8 30 29 102 46 160 30 98 36 119 59 203 42 149 84 283
90 290 7 7 252 -85 401 -150 19 -8 44 -19 55 -23 11 -4 36 -15 55 -23 121 -52
314 -126 320 -122 5 3 11 33 15 67 3 35 10 88 15 118 5 30 13 92 19 138 6 45
16 119 22 165 6 45 14 107 19 137 5 30 14 99 21 153 12 92 14 97 37 97 22 0
162 -33 637 -151 110 -27 204 -49 209 -49 5 0 7 186 5 448 l-4 447 35 -1 c19
0 96 -6 170 -13 153 -14 284 -26 450 -40 63 -5 141 -13 174 -17 l59 -7 -6 54
c-4 48 -12 94 -47 299 -10 58 -15 86 -59 355 -16 94 -25 174 -21 179 5 4 80
12 167 17 87 5 232 13 323 19 91 5 216 13 278 16 62 4 115 10 117 14 3 4 -22
88 -54 186 -122 374 -211 649 -211 655 0 9 47 26 90 33 19 3 55 10 80 16 25 6
68 14 95 20 28 5 93 19 145 30 52 12 115 25 140 30 25 6 88 19 140 30 52 11
112 23 133 27 21 3 40 10 43 15 3 5 -82 186 -190 403 -108 216 -196 396 -196
398 0 3 37 19 83 37 45 17 91 36 102 40 11 5 83 32 160 60 77 28 185 69 240
90 55 21 133 51 173 66 39 15 72 31 72 36 0 9 -46 75 -160 233 -31 43 -172
243 -303 431 -21 31 -36 61 -34 68 3 7 24 23 46 34 52 27 300 166 364 204 26
15 50 28 52 28 2 0 30 15 62 34 32 18 78 45 103 58 107 59 126 70 134 79 6 5
-23 43 -75 96 -501 520 -537 559 -527 567 1 2 35 27 73 56 39 30 108 84 155
120 47 36 114 89 150 116 224 174 315 246 318 253 1 5 -23 28 -55 51 -32 24
-168 130 -303 234 -135 105 -267 207 -293 226 -26 19 -46 40 -44 46 1 7 101
115 222 240 122 126 259 269 305 318 l84 88 -25 19 c-13 10 -27 19 -31 19 -3
0 -61 32 -128 70 -67 39 -123 70 -125 70 -2 0 -45 24 -97 54 -51 29 -113 64
-138 78 -25 14 -63 35 -84 47 -22 13 -62 34 -89 48 -27 15 -51 32 -54 39 -3 8
28 60 68 116 40 57 98 139 129 183 31 44 111 157 178 251 67 94 122 176 122
182 0 5 -12 15 -27 20 -16 6 -64 24 -108 40 -327 122 -472 177 -510 192 -11 4
-57 23 -102 40 -46 18 -83 34 -83 36 0 3 88 182 196 399 108 217 193 398 190
403 -3 5 -22 12 -43 15 -21 3 -81 15 -133 26 -223 49 -369 80 -425 91 -143 28
-251 53 -259 60 -8 8 25 114 205 664 32 98 57 182 54 186 -2 4 -55 10 -117 13
-62 4 -189 12 -283 17 -93 6 -239 15 -323 19 -85 5 -158 13 -162 17 -5 5 -5
26 0 49 5 22 16 87 25 145 32 204 35 221 44 278 6 31 21 124 35 205 14 82 26
162 26 179 l0 31 -57 -7 c-59 -6 -187 -19 -388 -36 -60 -6 -168 -15 -240 -22
-71 -6 -146 -12 -165 -12 l-35 -1 4 448 c2 261 0 447 -5 447 -5 0 -90 -20
-189 -44 -509 -126 -635 -156 -657 -156 -23 0 -26 5 -31 53 -4 28 -11 84 -17
122 -16 114 -29 215 -41 300 -6 44 -14 109 -19 145 -5 36 -14 106 -20 155 -7
50 -15 93 -19 97 -6 7 -186 -60 -318 -118 -18 -8 -48 -20 -65 -28 -18 -8 -103
-42 -188 -76 -85 -34 -175 -71 -198 -82 -50 -22 -67 -19 -75 14 -3 13 -19 70
-37 128 -17 58 -35 119 -40 135 -5 17 -36 125 -70 240 -34 116 -65 224 -70
240 -19 65 -23 75 -31 75 -10 0 -74 -35 -111 -61 -14 -11 -28 -19 -31 -19 -3
0 -49 -27 -102 -60 -53 -33 -98 -60 -100 -60 -2 0 -43 -24 -92 -53 -201 -122
-314 -187 -327 -187 -7 0 -25 28 -41 63 -16 34 -51 109 -78 167 -50 107 -89
191 -135 290 -13 30 -44 97 -68 148 -24 52 -44 97 -44 102 0 14 -31 34 -38 24
-4 -5 -32 -29 -62 -54 -30 -24 -105 -86 -166 -137 -61 -50 -141 -116 -176
-145 -36 -29 -111 -90 -166 -135 -55 -46 -103 -83 -106 -83 -3 0 -114 163
-247 363 -133 199 -245 365 -248 370 -4 4 -30 -16 -57 -45z m-145 -918 c188
-13 357 -28 449 -40 235 -32 254 -35 405 -61 61 -11 205 -40 302 -61 63 -14
281 -70 400 -102 94 -26 385 -120 420 -136 11 -5 52 -20 90 -33 73 -26 205
-78 265 -104 19 -8 49 -21 65 -28 227 -95 576 -273 820 -418 189 -111 479
-307 655 -441 107 -82 195 -150 200 -156 3 -3 30 -25 60 -50 178 -145 485
-436 661 -625 41 -44 103 -114 139 -155 36 -41 68 -77 71 -80 10 -9 243 -303
285 -360 274 -372 457 -670 662 -1080 80 -160 108 -220 165 -350 11 -25 25
-58 32 -75 98 -224 251 -676 305 -895 5 -19 18 -71 29 -115 12 -44 26 -100 31
-125 5 -25 19 -88 30 -140 47 -214 99 -555 120 -790 58 -655 33 -1281 -79
-1920 -11 -63 -29 -158 -41 -210 -11 -52 -25 -115 -30 -140 -17 -81 -74 -296
-109 -412 -12 -38 -30 -96 -40 -130 -66 -218 -148 -435 -289 -763 -27 -63
-207 -424 -247 -495 -20 -36 -49 -87 -64 -115 -15 -27 -47 -81 -71 -120 -23
-38 -51 -85 -61 -102 -34 -60 -221 -336 -303 -448 -421 -575 -945 -1104 -1501
-1514 -33 -25 -76 -56 -95 -71 -96 -73 -389 -263 -560 -363 -166 -98 -499
-270 -655 -339 -33 -15 -85 -38 -115 -52 -163 -73 -483 -191 -670 -248 -36
-11 -110 -33 -165 -50 -55 -16 -116 -34 -135 -38 -19 -5 -71 -18 -115 -29 -44
-12 -100 -26 -125 -31 -25 -5 -88 -19 -140 -30 -126 -28 -179 -37 -385 -69
-478 -75 -1051 -99 -1535 -66 -302 20 -455 38 -710 82 -47 8 -110 18 -140 23
-30 5 -98 18 -150 30 -52 11 -115 25 -140 30 -25 5 -81 19 -125 31 -44 11 -96
24 -115 29 -241 59 -729 228 -965 334 -27 13 -70 31 -95 42 -95 41 -461 226
-580 294 -69 40 -141 81 -160 92 -19 11 -47 29 -62 39 -14 11 -29 19 -32 19
-8 0 -287 185 -381 253 -408 294 -730 575 -1070 937 -87 92 -247 274 -312 355
-17 22 -52 65 -77 97 -180 224 -442 610 -588 866 -69 120 -99 178 -196 372
-59 118 -116 235 -126 260 -10 25 -28 65 -39 90 -40 93 -46 107 -75 180 -91
229 -176 478 -228 668 -37 134 -47 173 -69 262 -57 225 -105 474 -134 690 -6
41 -15 109 -20 150 -50 373 -65 921 -36 1330 26 368 72 702 135 990 11 52 25
115 30 140 5 25 19 81 31 125 11 44 24 96 29 115 43 187 211 679 305 895 7 17
21 50 32 75 217 499 510 1006 820 1421 71 94 278 356 292 369 4 3 40 43 81 90
410 467 872 871 1390 1217 211 141 340 219 580 350 70 39 320 164 383 192 26
11 66 30 90 40 326 146 772 304 1047 371 19 5 71 18 115 29 89 24 105 28 290
65 187 38 314 60 425 75 41 6 109 15 150 20 94 13 269 29 420 40 168 12 679
13 849 1z"/>
<path d="M8835 15649 c-152 -11 -336 -28 -425 -40 -114 -15 -329 -49 -385 -59
-27 -6 -86 -17 -130 -25 -145 -28 -336 -75 -516 -126 -133 -38 -424 -131 -464
-148 -11 -5 -92 -37 -180 -72 -88 -34 -188 -75 -223 -91 -34 -15 -65 -28 -67
-28 -8 0 -384 -187 -455 -226 -36 -20 -87 -48 -115 -63 -27 -15 -81 -46 -119
-69 -37 -23 -70 -42 -72 -42 -8 0 -198 -125 -364 -239 -87 -60 -378 -277 -390
-290 -3 -4 -30 -26 -60 -51 -250 -203 -637 -580 -830 -810 -30 -36 -57 -67
-60 -70 -4 -4 -47 -56 -107 -130 -7 -8 -49 -62 -93 -120 -45 -58 -87 -112 -93
-120 -35 -44 -221 -316 -253 -370 -12 -19 -45 -73 -74 -120 -98 -157 -193
-330 -294 -535 -76 -154 -156 -324 -156 -331 0 -2 -9 -26 -21 -52 -25 -55 -29
-65 -64 -157 -79 -203 -158 -436 -204 -600 -17 -60 -35 -123 -40 -140 -17 -57
-73 -296 -95 -405 -92 -458 -135 -895 -136 -1379 0 -317 17 -610 50 -851 5
-36 14 -103 20 -150 12 -91 24 -164 40 -245 40 -204 55 -275 82 -385 56 -232
148 -535 228 -750 18 -47 41 -110 52 -140 11 -30 28 -73 38 -96 11 -22 28 -63
38 -90 59 -148 249 -530 350 -706 12 -21 31 -53 41 -72 19 -33 54 -91 149
-243 56 -92 212 -316 282 -407 62 -80 252 -320 259 -326 4 -3 31 -34 61 -70
86 -102 161 -182 350 -371 303 -304 599 -551 943 -789 156 -108 412 -270 536
-337 36 -20 84 -47 106 -59 48 -28 379 -193 450 -224 28 -12 68 -31 91 -41 22
-10 65 -28 95 -39 30 -12 68 -27 84 -35 17 -7 66 -26 110 -43 44 -16 100 -38
125 -47 258 -98 647 -206 970 -270 41 -8 98 -19 125 -25 342 -68 816 -110
1249 -110 381 0 616 17 1031 76 134 18 99 12 365 65 235 46 521 123 785 210
83 28 159 54 170 59 11 4 106 42 210 83 215 85 266 107 490 218 238 117 495
261 623 348 33 22 63 41 66 41 2 0 29 17 59 37 30 21 104 71 164 112 59 41
137 97 173 125 79 61 313 248 320 256 3 3 21 18 40 34 124 101 449 416 601
581 130 142 325 378 439 530 25 33 47 62 50 65 19 17 275 402 343 515 153 254
360 663 449 885 16 41 36 91 45 110 21 48 28 66 51 130 11 30 28 75 37 100 56
147 160 493 203 670 84 347 118 539 167 940 18 155 35 494 35 730 0 234 -17
596 -34 720 -3 19 -10 78 -16 130 -13 106 -45 316 -61 400 -6 30 -15 78 -20
105 -6 28 -15 70 -20 95 -6 25 -14 63 -19 85 -26 113 -63 261 -91 355 -17 58
-34 119 -39 135 -10 38 -83 256 -105 315 -9 25 -26 70 -37 100 -11 30 -29 74
-39 97 -11 24 -19 49 -19 56 0 7 -4 17 -9 22 -4 6 -20 39 -34 75 -61 155 -246
532 -354 721 -53 91 -159 266 -222 364 -90 141 -327 465 -427 585 -12 14 -50
59 -84 100 -105 128 -217 248 -389 420 -253 252 -359 347 -603 540 -186 148
-221 175 -318 240 -52 36 -97 67 -100 70 -10 11 -288 190 -294 190 -2 0 -34
18 -71 41 -447 271 -1078 545 -1590 688 -60 17 -123 35 -140 40 -96 30 -429
102 -625 136 -200 35 -408 59 -680 80 -208 16 -722 18 -915 4z m880 -224 c386
-29 686 -71 970 -135 134 -31 345 -84 435 -111 58 -17 119 -34 135 -39 39 -10
244 -78 270 -89 34 -15 157 -62 205 -78 25 -9 73 -28 108 -44 34 -16 65 -29
67 -29 16 0 480 -226 595 -290 107 -60 285 -167 352 -212 31 -21 59 -38 63
-38 3 0 29 -16 57 -36 29 -21 88 -62 133 -92 561 -387 1111 -923 1557 -1518
104 -139 388 -571 388 -590 0 -3 11 -21 24 -42 65 -100 356 -679 356 -707 0
-3 10 -27 21 -53 38 -84 47 -106 67 -162 11 -30 34 -93 52 -140 105 -282 184
-563 270 -960 78 -358 130 -887 130 -1325 0 -208 -16 -519 -35 -680 -24 -206
-43 -350 -55 -415 -5 -25 -13 -72 -19 -105 -35 -198 -107 -500 -161 -680 -12
-38 -25 -83 -30 -100 -10 -38 -63 -198 -83 -250 -9 -22 -29 -78 -47 -125 -17
-47 -35 -94 -39 -105 -5 -11 -16 -36 -24 -55 -8 -19 -27 -63 -41 -98 -46 -114
-60 -145 -158 -342 -102 -205 -164 -320 -204 -382 -13 -21 -24 -40 -24 -42 0
-3 -32 -56 -72 -118 -39 -62 -82 -131 -95 -153 -13 -22 -58 -87 -99 -145 -41
-58 -92 -131 -115 -163 -37 -53 -235 -305 -248 -317 -3 -3 -28 -32 -56 -65
-182 -219 -487 -524 -750 -751 -420 -362 -931 -695 -1439 -939 -193 -93 -264
-125 -271 -125 -2 0 -33 -13 -67 -29 -35 -15 -94 -40 -133 -54 -38 -14 -108
-40 -155 -57 -750 -277 -1575 -414 -2386 -397 -341 8 -486 18 -789 56 -129 17
-344 53 -420 70 -22 5 -67 15 -100 22 -91 18 -352 85 -473 120 -161 46 -519
170 -616 213 -58 26 -98 43 -141 60 -111 46 -449 211 -585 287 -223 124 -551
334 -743 477 -780 579 -1432 1323 -1896 2162 -80 144 -241 474 -287 585 -15
39 -28 69 -58 138 -15 32 -32 78 -68 177 -11 30 -24 64 -28 75 -5 11 -27 76
-50 145 -150 463 -225 795 -290 1283 -45 338 -63 904 -40 1218 29 390 49 543
115 899 59 314 189 773 300 1060 20 52 46 120 57 150 12 30 24 60 28 65 4 6
15 30 24 55 61 156 284 602 362 722 13 21 24 40 24 42 0 4 41 72 141 231 64
102 191 285 278 399 575 758 1246 1348 2081 1829 52 30 509 260 555 279 22 10
58 24 80 33 51 21 88 37 147 64 26 11 52 21 57 21 4 0 41 14 82 31 212 87 762
248 987 289 26 5 99 18 162 30 522 97 1140 133 1655 95z"/>
<path d="M9248 15263 l-47 -4 4 -42 c11 -104 15 -718 5 -737 -13 -25 -47 -26
-54 -2 -4 15 -23 454 -29 697 l-2 80 -115 0 -115 0 -3 -140 c-2 -77 2 -254 8
-394 9 -212 14 -260 30 -290 42 -83 136 -131 254 -131 109 0 193 39 242 112
25 38 28 53 31 138 2 52 0 235 -4 405 l-8 310 -75 1 c-41 0 -96 -1 -122 -3z"/>
<path d="M9686 15244 c-3 -11 -10 -39 -15 -64 -16 -80 -50 -243 -71 -340 -12
-52 -25 -115 -30 -140 -6 -25 -19 -88 -31 -140 -11 -52 -24 -115 -29 -140 -4
-25 -11 -53 -15 -62 -10 -26 20 -35 137 -41 121 -5 112 -11 123 80 9 73 23 89
66 77 l34 -10 5 -79 5 -80 110 -12 c61 -7 116 -10 124 -8 10 4 12 17 7 48 -3
23 -10 110 -16 192 -5 83 -15 215 -20 295 -6 80 -15 203 -20 274 -5 77 -13
132 -20 136 -6 4 -60 10 -118 13 -59 4 -132 10 -163 13 -50 6 -58 4 -63 -12z
m176 -444 l3 -155 -34 -3 c-18 -2 -38 1 -43 6 -7 7 11 123 48 301 12 57 22 -5
26 -149z"/>
<path d="M8335 15199 c-56 -22 -88 -47 -125 -99 -23 -32 -25 -43 -24 -145 0
-60 6 -139 12 -175 6 -36 16 -103 22 -150 28 -220 49 -281 109 -332 95 -80
231 -77 298 7 l28 35 20 -26 c19 -24 23 -25 85 -17 l65 8 3 35 c2 19 -1 69 -8
110 -6 41 -15 104 -20 140 -5 36 -14 98 -21 139 l-11 74 -62 -6 c-101 -10
-194 -24 -206 -32 -8 -5 -10 -23 -6 -56 9 -66 15 -79 36 -79 26 0 30 -9 40
-97 9 -81 1 -119 -26 -130 -35 -13 -52 29 -74 187 -51 375 -59 441 -53 455 6
18 62 20 68 3 3 -7 11 -49 18 -93 l14 -80 54 2 c30 2 82 8 117 14 61 11 62 12
62 45 0 41 -23 132 -44 172 -19 37 -67 78 -113 97 -53 22 -195 19 -258 -6z"/>
<path d="M10304 15188 c-4 -7 -11 -30 -15 -53 -4 -22 -16 -92 -28 -155 -24
-126 -26 -137 -65 -355 -15 -82 -36 -192 -47 -244 -21 -105 -20 -106 41 -116
19 -3 54 -10 77 -16 23 -5 55 -9 71 -9 28 0 31 4 41 50 14 66 26 124 46 242
20 109 30 125 64 101 30 -20 28 -44 -20 -288 -6 -33 -12 -76 -13 -95 l-1 -34
90 -18 c50 -9 97 -17 105 -17 16 -1 25 30 52 179 5 30 14 74 19 97 21 97 6
162 -48 201 l-27 20 40 11 c77 21 106 84 108 236 1 91 -1 103 -23 134 -25 34
-88 68 -151 82 -79 17 -295 59 -301 59 -5 0 -11 -5 -15 -12z m257 -209 c17
-17 19 -28 14 -67 -11 -75 -27 -112 -52 -118 -34 -9 -53 11 -43 44 5 15 14 57
20 95 13 73 25 82 61 46z"/>
<path d="M7540 15041 c-28 -8 -26 6 -50 -376 -10 -169 -22 -361 -36 -568 l-7
-108 29 6 c16 4 34 8 40 10 11 3 23 142 44 495 6 96 15 236 20 310 18 246 18
247 -40 231z"/>
<path d="M11068 15018 c-8 -13 -22 -41 -30 -63 -9 -22 -30 -69 -46 -105 -16
-36 -40 -87 -52 -115 -12 -27 -28 -63 -35 -80 -8 -16 -32 -70 -54 -118 -23
-49 -41 -91 -41 -94 0 -2 -13 -32 -29 -66 -16 -34 -43 -92 -60 -129 -35 -80
-40 -73 92 -111 48 -14 91 -28 96 -31 13 -8 26 12 56 87 15 37 30 67 33 67 3
0 21 -6 40 -12 37 -14 37 -11 16 -140 -7 -43 -6 -44 121 -80 99 -28 110 -28
113 2 1 14 7 57 12 95 23 155 83 575 93 650 6 44 11 100 11 124 l1 44 -55 17
c-30 9 -89 27 -130 39 -41 12 -85 26 -98 32 -33 13 -38 12 -54 -13z m87 -446
c-15 -81 -29 -153 -31 -159 -5 -19 -38 -16 -63 5 l-21 17 55 130 c95 223 100
223 60 7z"/>
<path d="M7180 14926 c-61 -17 -83 -30 -115 -68 -25 -29 -27 -38 -22 -88 6
-54 62 -243 86 -288 45 -83 192 -81 279 5 27 27 42 51 42 67 0 53 -73 288
-102 329 -20 28 -77 58 -107 56 -9 0 -36 -6 -61 -13z m64 -164 c69 -217 75
-252 43 -252 -18 0 -30 27 -67 150 -17 58 -36 117 -42 133 -8 20 -7 31 2 41
21 26 39 6 64 -72z"/>
<path d="M11651 14828 c-33 -87 -76 -191 -97 -236 -13 -29 -24 -55 -24 -57 0
-5 -71 -176 -101 -242 -10 -24 -19 -45 -19 -48 0 -3 -10 -27 -21 -53 -54 -120
-79 -182 -79 -196 0 -11 56 -39 132 -66 44 -16 58 -8 77 47 8 21 22 57 32 81
11 23 27 61 38 85 10 23 24 59 32 80 15 44 29 48 29 10 0 -26 -3 -57 -31 -280
-9 -79 -9 -87 8 -97 24 -14 176 -77 179 -73 5 4 57 125 94 217 21 52 62 149
90 215 28 66 65 154 81 195 29 71 39 95 74 174 27 61 23 68 -71 105 -47 18
-89 29 -93 25 -5 -5 -16 -29 -25 -54 -10 -25 -24 -58 -32 -75 -7 -16 -29 -68
-48 -115 -19 -46 -39 -86 -44 -88 -12 -4 -9 71 9 228 5 47 9 104 9 128 0 42
-1 43 -47 62 -27 11 -55 24 -63 29 -9 5 -30 12 -48 16 -27 6 -33 3 -41 -17z"/>
<path d="M6695 14724 c-91 -20 -133 -42 -198 -103 -83 -78 -88 -169 -17 -327
30 -67 58 -130 82 -184 100 -230 157 -308 240 -331 108 -29 280 37 341 130 54
81 45 167 -35 338 -21 46 -38 85 -38 87 0 19 -137 295 -159 320 -42 48 -153
84 -216 70z m45 -229 c19 -39 43 -88 52 -110 10 -22 43 -96 73 -165 31 -69 63
-138 70 -155 33 -73 39 -103 26 -119 -33 -40 -66 -10 -115 104 -16 36 -41 92
-56 125 -15 33 -35 76 -43 95 -9 19 -33 74 -55 121 -48 105 -58 144 -41 165
25 31 52 12 89 -61z"/>
<path d="M7745 14621 c-81 -13 -155 -81 -155 -141 0 -15 9 -56 20 -91 11 -35
25 -82 32 -104 21 -75 57 -141 84 -156 39 -20 131 -15 187 11 66 31 91 75 83
144 -6 52 -54 212 -81 272 -26 55 -87 78 -170 65z m34 -111 c19 -50 29 -82 51
-160 12 -41 26 -85 31 -97 10 -27 2 -53 -16 -53 -18 0 -29 18 -45 70 -7 25
-20 70 -30 100 -38 122 -42 139 -37 154 10 26 34 18 46 -14z"/>
<path d="M12283 14568 c-16 -21 -73 -128 -73 -138 0 -6 23 -21 50 -35 28 -14
53 -32 56 -39 5 -12 -34 -93 -116 -241 -15 -27 -44 -81 -65 -120 -42 -78 -77
-143 -124 -227 -17 -31 -31 -63 -31 -70 0 -11 161 -107 195 -116 6 -1 23 21
39 50 16 29 40 73 54 98 14 25 41 74 60 110 19 36 47 89 63 118 27 49 59 107
116 212 37 67 37 67 103 35 37 -18 64 -25 69 -19 4 5 24 39 44 75 43 79 48 72
-97 148 -54 29 -112 60 -130 70 -112 63 -186 101 -194 101 -5 0 -14 -6 -19
-12z"/>
<path d="M6045 14401 c-84 -21 -181 -97 -215 -169 -44 -92 -23 -155 141 -434
118 -203 155 -254 206 -290 43 -30 55 -33 119 -33 60 0 81 5 135 32 117 59
174 135 174 233 0 77 -8 91 -238 478 -69 116 -117 165 -174 181 -42 12 -103
13 -148 2z m127 -313 c214 -360 221 -373 222 -408 1 -32 -1 -35 -29 -35 -33 0
-26 -10 -218 315 -143 241 -155 272 -109 283 33 7 50 -13 134 -155z"/>
<path d="M12826 14212 c-16 -26 -130 -199 -253 -385 -123 -186 -223 -340 -223
-342 0 -9 330 -225 342 -225 15 0 98 122 98 142 0 7 -27 30 -60 52 -33 21 -63
43 -66 48 -7 12 95 168 110 168 6 0 35 -16 65 -36 29 -20 57 -32 61 -27 25 24
87 132 81 140 -3 6 -26 23 -51 39 -25 16 -49 32 -54 35 -12 9 75 148 94 149 8
0 37 -16 64 -35 27 -19 55 -35 63 -35 18 0 109 139 97 149 -27 25 -315 211
-326 211 -7 -1 -26 -22 -42 -48z"/>
<path d="M8920 14125 c-196 -13 -245 -18 -406 -41 -209 -29 -414 -70 -619
-124 -66 -18 -133 -35 -150 -40 -104 -27 -480 -163 -625 -227 -131 -57 -497
-245 -605 -310 -419 -254 -747 -511 -1080 -848 -256 -259 -446 -490 -644 -785
-106 -159 -146 -223 -225 -360 -36 -62 -216 -423 -245 -490 -77 -181 -202
-523 -232 -635 -45 -171 -92 -360 -100 -405 -6 -30 -15 -75 -19 -100 -126
-651 -131 -1290 -15 -1965 64 -373 212 -867 362 -1205 36 -80 205 -421 244
-490 133 -240 335 -536 513 -755 169 -208 429 -480 606 -636 47 -40 87 -76 90
-79 12 -14 214 -173 300 -236 144 -107 349 -242 480 -317 125 -71 175 -98 345
-181 228 -112 226 -111 390 -176 393 -157 874 -281 1275 -330 52 -6 124 -15
160 -20 36 -5 176 -14 312 -21 250 -12 593 -3 788 21 41 5 116 14 165 21 406
50 872 171 1275 331 164 65 162 64 405 184 208 103 231 115 360 193 37 23 69
41 71 41 8 0 279 184 374 253 599 441 1127 1035 1499 1687 31 55 225 444 254
510 121 275 255 690 317 980 60 279 90 488 120 857 28 341 -8 909 -81 1288 -5
28 -14 75 -20 105 -54 279 -160 631 -281 935 -85 213 -283 612 -374 752 -19
29 -34 55 -34 58 0 10 -201 307 -264 390 -187 249 -316 397 -541 620 -311 309
-666 585 -1030 801 -55 32 -114 67 -130 77 -31 19 -425 213 -485 240 -325 143
-780 283 -1127 347 -493 91 -901 116 -1373 85z m1150 -1848 c183 -47 315 -113
414 -206 124 -119 160 -242 172 -588 6 -149 4 -196 -6 -208 -11 -13 -62 -15
-386 -15 -359 0 -374 1 -384 19 -6 12 -10 93 -10 194 0 189 -7 229 -49 264
-54 47 -161 21 -194 -46 -28 -57 -40 -170 -28 -261 17 -131 29 -159 91 -220
55 -55 87 -77 295 -205 449 -278 618 -442 686 -670 67 -221 78 -640 24 -880
-22 -97 -79 -202 -144 -264 -82 -77 -242 -166 -361 -200 -142 -40 -227 -51
-396 -51 -218 0 -378 31 -534 103 -140 65 -286 197 -338 309 -64 136 -94 339
-90 619 l3 194 385 0 385 0 6 -260 c8 -301 12 -332 49 -377 27 -32 31 -33 100
-33 70 0 72 1 105 37 18 20 39 53 45 75 34 113 15 366 -34 468 -36 73 -134
150 -486 385 -309 205 -410 297 -478 428 -82 160 -105 276 -104 529 1 450 92
644 367 781 94 47 150 67 248 87 110 22 137 23 352 19 170 -3 214 -7 295 -27z
m-1541 -41 c8 -10 10 -441 9 -1622 l-3 -1609 -422 -3 -423 -2 0 1618 c0 890 3
1622 7 1625 3 4 190 7 413 7 331 0 410 -3 419 -14z m3299 2 c9 -9 12 -158 12
-607 1 -589 3 -636 31 -527 4 17 22 78 39 136 17 58 35 119 40 135 5 17 23 77
40 135 17 58 35 119 40 135 5 17 23 77 40 135 17 58 35 119 40 135 5 17 23 77
40 135 17 58 36 121 40 140 5 19 17 40 26 47 14 10 104 13 391 13 330 0 374
-2 380 -16 3 -8 -59 -210 -137 -447 -367 -1109 -333 -997 -320 -1042 20 -71
28 -98 60 -205 17 -58 35 -118 40 -135 5 -16 23 -77 40 -135 17 -58 35 -118
40 -135 5 -16 23 -77 40 -135 48 -160 111 -371 120 -405 5 -16 17 -59 28 -95
11 -36 36 -121 56 -190 20 -69 41 -136 45 -150 26 -75 42 -141 36 -150 -7 -12
-833 -14 -851 -2 -6 4 -20 45 -32 92 -27 107 -166 678 -234 955 -28 116 -57
226 -64 245 -11 30 -13 -66 -13 -621 -1 -542 -3 -659 -15 -668 -9 -8 -129 -10
-422 -9 l-409 3 -3 1610 c-1 886 0 1616 3 1623 6 17 815 18 833 0z m-5191 -8
c274 -22 375 -53 493 -151 166 -138 240 -363 240 -727 0 -210 -27 -379 -75
-473 -18 -34 -94 -103 -136 -122 -50 -23 -123 -46 -169 -53 -22 -4 -40 -10
-40 -13 0 -4 21 -13 48 -20 26 -8 83 -32 127 -55 87 -45 150 -111 198 -209 42
-87 48 -191 45 -827 l-3 -575 -385 0 -385 0 -6 630 c-4 398 -10 650 -17 685
-20 98 -62 131 -174 138 l-68 4 -2 -728 -3 -729 -395 -3 c-217 -1 -405 0 -417
3 l-23 5 0 1615 0 1615 509 0 c281 0 568 -5 638 -10z m391 -3572 c16 -16 17
-650 2 -679 -10 -18 -24 -19 -315 -19 l-305 0 2 -327 3 -328 278 -3 277 -2 0
-330 0 -330 -277 -2 -278 -3 -5 -735 -5 -735 -446 -3 c-368 -2 -448 0 -458 11
-8 11 -10 467 -9 1748 l3 1734 605 5 c333 3 675 6 761 8 110 1 158 -1 167 -10z
m1517 -13 c256 -24 344 -50 451 -131 172 -131 243 -279 279 -584 36 -300 -1
-634 -82 -756 -47 -70 -114 -115 -213 -143 -25 -8 -58 -17 -74 -22 -16 -5 -40
-9 -52 -9 -42 0 -26 -15 44 -38 95 -33 181 -78 221 -115 38 -37 99 -124 125
-181 35 -75 40 -175 40 -846 l1 -655 -414 -3 c-325 -2 -416 0 -423 10 -4 7 -8
299 -8 648 -1 349 -5 671 -9 716 -14 147 -59 194 -193 202 l-68 4 0 -779 c0
-593 -3 -782 -12 -791 -17 -17 -879 -17 -896 0 -18 18 -17 3468 1 3487 17 19
1065 7 1282 -14z m2600 -330 l0 -350 -298 -3 -297 -2 2 -328 3 -327 280 -5
280 -5 0 -325 0 -325 -280 -5 -280 -5 0 -380 0 -380 319 -3 c215 -1 324 -6
333 -13 18 -16 19 -669 1 -687 -17 -17 -1549 -17 -1566 0 -18 18 -17 3469 0
3486 9 9 186 12 758 10 l745 -3 0 -350z m1840 0 l0 -350 -297 -3 -298 -2 0
-330 0 -330 280 0 280 0 0 -330 0 -330 -280 0 -280 0 0 -385 0 -385 328 -2
327 -3 0 -345 0 -345 -775 -6 c-520 -5 -779 -4 -787 3 -18 15 -19 3468 -1
3486 9 9 186 12 758 10 l745 -3 0 -350z"/>
<path d="M6340 11680 c-7 -4 -9 -115 -8 -356 l3 -349 70 3 c117 6 156 41 174
159 14 92 14 312 0 389 -12 68 -46 118 -92 138 -38 15 -131 26 -147 16z"/>
<path d="M8170 8057 c-3 -3 -4 -177 -2 -387 l2 -383 71 7 c77 8 127 25 150 53
39 46 44 81 44 333 0 243 0 245 -25 289 -32 57 -84 84 -170 89 -36 2 -67 2
-70 -1z"/>
<path d="M5544 14077 c-45 -31 -50 -39 -65 -99 -19 -74 -47 -132 -84 -176 -32
-38 -31 -49 4 -92 22 -26 32 -32 42 -23 28 22 90 53 107 53 31 0 52 -26 313
-392 85 -119 109 -142 124 -118 3 5 40 33 81 61 48 33 73 57 70 66 -6 16 -87
136 -96 143 -4 3 -25 32 -48 65 -23 33 -81 115 -129 182 -48 66 -125 173 -171
237 -46 63 -87 118 -91 121 -5 3 -31 -10 -57 -28z"/>
<path d="M13295 13913 c-11 -14 -76 -97 -145 -183 -69 -86 -136 -172 -150
-190 -14 -18 -74 -94 -134 -169 -59 -75 -111 -142 -113 -149 -3 -7 3 -19 14
-27 10 -7 82 -63 158 -124 77 -61 145 -111 150 -110 6 0 34 30 62 67 l52 67
-22 20 c-12 11 -41 35 -64 53 -24 19 -43 38 -43 44 0 11 90 127 113 146 10 9
25 2 66 -28 29 -22 57 -40 61 -40 13 0 100 110 100 125 0 8 -22 31 -50 52 -27
21 -49 43 -50 49 0 15 92 133 105 134 6 0 35 -20 65 -45 30 -25 58 -44 62 -43
10 4 108 129 108 139 0 13 -290 239 -308 239 -10 0 -26 -12 -37 -27z"/>
<path d="M5416 4389 c-14 -17 -26 -35 -26 -41 0 -6 21 -33 46 -60 53 -57 53
-66 -10 -147 -22 -30 -50 -66 -61 -80 -10 -14 -53 -69 -95 -121 -134 -167
-181 -231 -178 -240 3 -8 164 -140 171 -140 2 0 48 57 103 126 54 69 153 194
220 277 66 84 144 184 174 222 30 39 60 76 67 83 22 23 15 40 -32 76 -44 33
-48 34 -138 34 -68 1 -106 6 -147 21 -30 12 -58 21 -61 21 -4 0 -19 -14 -33
-31z"/>
<path d="M12435 4124 c-88 -59 -161 -108 -163 -110 -6 -5 19 -44 197 -313 97
-146 197 -300 223 -341 26 -41 58 -88 72 -105 l24 -29 171 113 c94 63 171 118
171 123 0 17 -85 138 -98 138 -7 0 -40 -18 -72 -40 -32 -22 -63 -40 -68 -40
-11 0 -51 51 -76 95 -9 17 -23 40 -31 51 -15 20 -13 23 45 60 33 22 60 44 60
49 0 6 -20 41 -45 78 l-46 67 -59 -40 c-32 -22 -61 -40 -64 -40 -8 0 -96 133
-96 145 0 5 27 27 60 49 33 21 60 43 60 50 0 14 -88 146 -98 146 -4 0 -79 -48
-167 -106z"/>
<path d="M5870 4159 c-39 -24 -88 -75 -124 -128 -105 -157 -242 -373 -257
-406 -12 -27 -19 -63 -19 -110 0 -64 3 -74 35 -118 53 -72 148 -134 233 -152
18 -4 56 -1 84 6 85 20 127 71 373 455 63 97 75 129 75 197 0 53 -5 71 -32
117 -36 59 -126 130 -189 149 -60 18 -140 14 -179 -10z m200 -164 c17 -20 4
-48 -83 -182 -35 -54 -103 -158 -151 -232 -48 -73 -93 -139 -101 -147 -20 -20
-53 -17 -65 6 -13 25 -2 47 100 200 42 63 101 153 130 200 97 157 138 194 170
155z"/>
<path d="M12095 3915 c-54 -30 -100 -55 -102 -55 -1 0 -29 -16 -62 -35 -59
-35 -73 -57 -52 -80 4 -6 25 -41 46 -80 21 -38 51 -94 66 -122 16 -29 42 -77
58 -105 85 -158 127 -234 195 -357 25 -46 46 -87 46 -91 0 -16 30 -32 43 -23
6 6 44 27 82 48 39 21 93 50 120 65 28 15 69 38 93 50 23 12 45 26 48 31 3 5
-11 36 -30 69 -20 34 -36 65 -36 71 0 24 -32 17 -96 -20 -64 -37 -70 -39 -86
-24 -10 9 -18 20 -18 24 0 4 -16 35 -35 68 -37 63 -38 79 -2 97 69 35 87 47
87 56 0 24 -72 138 -87 138 -8 0 -39 -14 -68 -30 -60 -34 -55 -37 -106 59
l-33 64 29 23 c17 13 35 24 40 24 6 0 23 11 39 23 l29 24 -36 62 c-21 34 -37
66 -37 72 0 20 -39 7 -135 -46z"/>
<path d="M6404 3841 c-36 -22 -90 -87 -127 -151 -45 -81 -182 -354 -205 -409
-28 -68 -29 -148 -3 -200 60 -117 252 -200 365 -157 86 33 110 68 276 398 99
198 104 211 104 270 -1 117 -73 204 -214 255 -54 20 -159 17 -196 -6z m190
-147 c9 -3 16 -17 16 -30 0 -14 -57 -136 -126 -272 -161 -315 -160 -314 -192
-310 -55 7 -51 25 47 219 115 226 190 370 203 387 11 13 28 15 52 6z"/>
<path d="M11689 3707 c-64 -29 -136 -61 -160 -71 -66 -29 -174 -78 -177 -80
-2 -3 18 -53 50 -124 21 -48 26 -48 102 -10 32 16 41 17 52 6 7 -7 40 -76 74
-153 33 -77 67 -153 74 -170 17 -37 51 -113 80 -180 12 -27 33 -76 47 -107 25
-59 40 -69 77 -48 9 5 52 25 94 44 85 39 83 33 46 116 -11 25 -47 106 -80 180
-32 74 -66 150 -74 168 -7 17 -20 47 -28 65 -8 17 -29 63 -45 101 -17 38 -31
77 -31 86 0 11 17 25 48 39 78 34 77 30 43 105 -17 36 -31 71 -31 76 0 20 -48
7 -161 -43z"/>
<path d="M6925 3622 c-31 -19 -63 -73 -89 -152 -8 -25 -24 -71 -35 -102 -37
-102 -22 -159 52 -201 66 -38 137 -52 179 -34 47 20 67 52 118 187 71 189 61
243 -58 296 -63 29 -126 31 -167 6z m133 -80 c13 -9 8 -26 -71 -241 -25 -68
-48 -94 -68 -74 -12 12 6 71 61 208 4 11 14 36 21 55 20 57 32 67 57 52z"/>
<path d="M11228 3516 c-37 -12 -73 -27 -79 -33 -9 -9 2 -53 45 -183 31 -94 56
-176 56 -182 0 -14 -26 13 -60 62 -13 19 -62 86 -108 148 -64 87 -88 112 -100
107 -10 -4 -52 -18 -94 -32 -43 -13 -78 -27 -78 -31 0 -4 13 -45 29 -92 16
-47 80 -242 142 -434 63 -191 120 -351 127 -353 15 -6 182 47 182 58 0 4 -25
82 -55 174 -30 91 -55 170 -55 175 0 15 25 1 35 -19 26 -51 197 -291 207 -291
30 0 181 55 186 68 3 8 -4 42 -15 76 -12 33 -76 229 -143 434 -96 295 -125
372 -138 371 -10 0 -47 -11 -84 -23z"/>
<path d="M7392 3467 c-75 -82 -132 -148 -312 -357 -107 -124 -197 -227 -200
-230 -3 -3 -30 -34 -60 -70 -30 -36 -61 -71 -67 -78 -20 -21 -16 -27 23 -41
42 -15 26 -29 165 134 51 61 96 112 99 115 3 3 30 34 60 70 30 36 57 67 60 70
24 22 321 372 322 380 2 6 -12 17 -29 25 -31 13 -34 13 -61 -18z"/>
<path d="M10590 3331 c-24 -8 -59 -16 -182 -42 -81 -17 -83 -20 -80 -75 4 -69
21 -290 32 -409 5 -55 14 -165 20 -245 17 -221 19 -230 39 -230 25 0 197 37
211 45 7 4 8 33 4 85 l-7 79 28 11 c47 18 58 9 80 -63 12 -37 26 -72 31 -76
10 -10 211 32 226 47 6 6 -5 45 -27 103 -46 118 -101 262 -155 404 -45 121
-91 241 -122 323 -22 56 -36 62 -98 43z m-10 -323 c7 -24 30 -95 51 -157 21
-63 36 -118 33 -122 -7 -12 -65 -22 -75 -12 -4 4 -13 55 -19 113 -5 58 -13
131 -16 163 -8 68 7 77 26 15z"/>
<path d="M7975 3307 c-117 -46 -146 -99 -194 -347 -6 -30 -18 -89 -27 -130
-56 -264 -52 -322 30 -406 81 -83 198 -100 260 -38 15 14 19 15 27 3 5 -8 9
-22 9 -31 0 -17 29 -28 111 -42 36 -6 36 -6 47 36 6 24 16 70 22 103 7 33 15
78 20 100 5 22 14 67 20 100 6 33 16 76 21 96 5 20 9 39 9 42 0 9 -32 18 -135
38 -55 11 -108 22 -118 25 -13 4 -21 -4 -32 -30 -20 -48 -20 -106 0 -106 9 0
18 -6 21 -14 6 -17 -32 -174 -47 -193 -15 -17 -44 -17 -59 2 -16 20 -13 43 67
435 8 41 19 95 24 119 9 47 33 91 49 91 4 0 16 -7 25 -16 16 -17 15 -52 -5
-148 -5 -22 -7 -43 -4 -47 2 -4 30 -13 62 -19 31 -6 73 -16 93 -21 70 -18 75
-15 89 50 7 33 11 89 8 124 -6 103 -65 171 -184 212 -61 22 -169 28 -209 12z"/>
<path d="M8466 3184 c-4 -21 -11 -93 -17 -159 -5 -66 -14 -165 -20 -220 -5
-55 -12 -167 -15 -250 l-6 -150 27 -40 c50 -76 157 -125 269 -125 75 0 129 18
178 59 63 53 76 104 98 371 6 74 15 171 20 215 5 44 12 128 16 186 l6 105
-113 11 c-63 6 -117 8 -121 4 -4 -3 -12 -65 -18 -136 -6 -72 -15 -177 -20
-235 -6 -58 -14 -158 -20 -223 -13 -158 -24 -199 -53 -195 -21 3 -22 7 -22
108 0 58 6 166 13 240 7 74 17 180 22 235 5 55 12 125 16 156 8 68 10 67 -131
76 l-103 6 -6 -39z"/>
<path d="M9835 3204 c-186 -20 -187 -20 -181 -52 3 -15 11 -72 17 -127 5 -55
14 -136 19 -180 5 -44 14 -125 20 -180 6 -55 15 -136 21 -180 5 -44 12 -113
15 -153 4 -40 10 -75 15 -77 14 -9 222 13 228 24 7 11 3 60 -19 256 -18 155
-18 159 3 163 33 7 55 -26 65 -96 16 -105 32 -246 32 -280 0 -38 15 -43 87
-32 32 6 75 10 96 10 22 0 38 5 38 13 6 51 -26 333 -42 375 -14 38 -38 61 -77
78 -31 13 -36 34 -8 34 26 0 58 49 64 95 10 91 -29 236 -75 277 -54 49 -109
55 -318 32z m132 -159 c15 -10 24 -33 32 -81 14 -76 10 -96 -23 -114 -32 -16
-46 -6 -46 34 0 18 -5 58 -11 90 -8 43 -7 61 2 72 14 18 19 18 46 -1z"/>
<path d="M9156 3168 c-5 -14 -20 -125 -36 -263 -6 -49 -15 -124 -20 -165 -5
-41 -14 -115 -20 -165 -6 -49 -15 -124 -20 -165 -6 -41 -11 -97 -13 -125 -3
-60 -3 -60 140 -50 l103 7 1 36 c0 21 3 55 7 77 7 37 10 40 46 46 44 7 45 6
54 -88 l7 -68 123 -3 c108 -2 122 -1 122 14 0 9 -9 73 -20 143 -23 141 -35
219 -50 319 -6 37 -15 92 -20 122 -4 30 -14 93 -21 140 -6 47 -17 110 -23 140
l-11 55 -173 3 c-133 2 -173 0 -176 -10z m203 -365 c6 -60 13 -135 14 -168 l2
-60 -35 0 -35 0 2 65 c3 90 25 270 33 270 3 0 12 -48 19 -107z"/>
<path d="M7178 3043 c-28 -18 -52 -60 -86 -153 -73 -197 -74 -203 -39 -255 41
-64 166 -110 228 -85 60 24 63 28 119 180 17 47 35 95 41 108 19 46 11 108
-18 143 -56 66 -185 99 -245 62z m135 -109 c-1 -15 -11 -51 -22 -79 -78 -203
-83 -215 -102 -215 -27 0 -24 31 12 125 17 44 40 105 52 135 11 30 26 58 31
62 19 13 31 2 29 -28z"/>
</g>
</svg>
